<svg className="logosvg" width="401" height="400" viewBox="0 0 401 400" fill="none" xmlns="http://www.w3.org/2000/svg">
<path d="M398.932 239.346C396.809 225.092 390.812 211.727 383.68 199.313C381.187 194.98 382.813 197.124 375.745 186.601L375.721 186.567C362.536 166.953 346.321 149.763 328.064 135.051C327.948 134.959 327.815 134.873 327.701 134.781L327.645 134.731C330.095 126.92 332.519 119.292 334.895 111.955C334.895 111.897 334.931 111.839 334.948 111.78C335.576 109.84 336.204 107.913 336.824 106.018C346.353 77.0525 355.056 53.6458 361.187 44.9461C364.811 39.782 368.532 33.6955 367.091 27.4969C366.108 23.3424 363.035 20.1143 360.047 17.1812C352.797 10.0271 344.899 2.7317 335.076 0.621204C320.617 -2.46148 306.565 6.48326 294.492 15.2327C268.204 34.3686 242.803 54.8173 218.175 76.2091L214.043 79.8318L213.983 79.757L213.917 79.811C213.897 79.8145 213.876 79.8125 213.856 79.8052C213.837 79.798 213.819 79.7857 213.805 79.7696C196.347 75.5111 178.243 72.6237 160.453 74.9711C157.569 75.3616 154.509 75.9432 152.463 78.0538C150.8 79.7696 150.047 82.1584 149.357 84.4974C146.056 96.3235 144.116 108.51 143.579 120.804C143.433 124.198 143.433 127.829 145.133 130.775C146.832 133.722 150.771 135.537 153.543 133.663C157.408 131.128 155.769 125.029 156.989 120.505C158.267 115.819 162.383 113.264 167.115 111.947C168.519 111.563 169.947 111.276 171.388 111.087H171.44C172.765 110.904 174.083 110.796 175.355 110.742C175.689 110.721 176.016 110.709 176.349 110.709C176.427 110.703 176.503 110.703 176.579 110.709C177.699 110.659 178.807 110.638 179.947 110.634L179.885 110.696H180.011C176.523 113.962 173.067 117.235 169.608 120.547C164.345 125.54 159.117 130.592 153.925 135.703C147.868 141.674 141.855 147.699 135.885 153.775C135.348 154.284 134.855 154.84 134.412 155.438L128.149 162.014L127.106 163.181H127.038L126.615 163.269L126.458 163.302H126.401L126.019 163.385L125.616 163.477C124.408 163.742 123.228 164.017 122.044 164.307L121.943 164.331C82.7355 174.024 48.1516 198.229 42.7428 189.085C87.0449 86.367 161.883 56.9694 161.883 56.9694C180.856 51.5394 186.644 63.5003 191.428 63.5003C191.428 63.5003 195.625 63.5003 196.664 57.5219C197.703 51.5435 173.461 34.6718 168.721 32.5199C163.981 30.3677 156.832 21.1198 139.188 30.883C36.9191 88.5564 1.09871 181.008 0.0314325 189.177C-1.03585 197.344 25.336 222.883 39.5449 215.815C46.3916 212.301 66.4323 203.614 88.7888 196.122C88.7888 196.122 89.848 195.761 91.7128 195.158C94.3829 194.282 97.0813 193.43 99.7677 192.608C99.7677 192.608 99.9651 192.541 100.331 192.433C100.468 192.4 100.625 192.346 100.803 192.292L100.907 192.264L100.851 192.325H100.883C98.6601 194.856 96.9525 196.854 95.9899 198.076C86.4851 209.526 77.7979 220.214 71.3579 228.799C31.8928 280.755 16.1615 315.491 16.1615 315.491C8.44078 327.444 42.5172 350.676 46.9475 350.676C74.894 350.14 118.81 321.54 118.81 321.54C223.012 244.133 193.523 184.295 193.523 184.295C187.229 178.215 180.591 172.528 173.643 167.261L172.435 166.385C171.701 165.939 171.004 165.435 170.349 164.877C169.947 164.602 169.588 164.323 169.193 164.045C168.943 163.875 168.693 163.742 168.496 163.63C168.487 163.619 168.476 163.61 168.464 163.605C168.451 163.599 168.437 163.597 168.424 163.597C168.268 163.521 168.129 163.41 168.021 163.273C168.021 163.273 168.021 163.239 168.021 163.227L167.796 163.106L168.077 162.401C168.587 161.645 169.192 160.965 169.877 160.377C172.879 158.336 174.755 154.976 177.292 152.371C178.839 150.763 180.417 149.189 182.004 147.627C185.629 144.082 189.299 140.634 193.003 137.219C195.355 135.03 197.736 132.874 200.088 130.73L204.752 126.475C209.061 122.487 213.389 118.543 217.736 114.643C217.904 114.548 218.083 114.474 218.268 114.423C218.409 114.412 218.552 114.412 218.695 114.423C218.968 114.427 219.24 114.475 219.5 114.564C220.931 114.877 222.363 115.207 223.793 115.553C224.12 115.627 224.441 115.715 224.776 115.789C226.951 116.317 229.109 116.89 231.272 117.493C254.084 123.852 275.78 133.883 295.563 147.216C295.865 147.411 296.135 147.601 296.441 147.809L296.067 148.997C296.017 149.127 295.973 149.251 295.925 149.376C291.423 161.565 287.065 173.851 283.085 186.239C281.375 191.518 279.728 196.824 278.144 202.155C272.712 220.298 268.805 238.891 266.464 257.727C266.061 261.209 265.659 264.677 265.369 268.158C265.045 271.218 264.895 274.295 264.917 277.373C264.887 278.413 265.053 279.45 265.409 280.423C266.017 281.91 267.717 282.844 268.929 283.783C270.405 284.931 271.963 285.961 273.589 286.866C276.868 288.707 280.332 290.174 283.92 291.241C291.204 293.302 298.681 294.556 306.224 294.98C307.476 295.056 308.688 295.172 309.933 295.25C323.373 296.116 336.861 295.826 350.256 294.386C364.497 292.866 380.059 290.485 390.957 279.978C401.211 270.049 400.861 252.396 398.932 239.346ZM152.088 183.447C152.383 183.468 152.688 183.48 152.979 183.506C162.528 184.336 168.931 187.967 169.757 195.682C172.931 262.01 53.2464 339.77 51.6999 315.333C56.13 292.998 72.1272 269.093 97.5485 239.305L97.5123 239.281C106.699 228.432 126.208 207.386 144.867 187.145L148.576 183.264C149.8 183.272 150.981 183.335 152.088 183.447ZM307.173 119.724L307.117 119.857L306.493 119.441C287.661 107.236 267.556 97.2598 246.556 89.703L247.152 89.217C253.108 84.2648 259.111 79.4068 265.16 74.6429C271.072 69.9066 276.183 65.8851 276.493 65.8851C276.533 65.8851 276.493 65.831 276.344 65.723C287.631 57.0372 299.139 48.6699 310.867 40.6212C311.963 39.8318 313.103 39.1006 314.239 38.357C323.171 33.5917 330.485 30.4634 335.519 29.3706C338.769 29.3706 342.447 30.9328 341.915 34.057C341.765 34.996 340.972 35.6939 340.627 36.5995C333.868 53.8202 324.835 75.5444 315.389 99.1007L314.053 102.478C311.829 108.095 309.564 113.86 307.255 119.774C307.227 119.76 307.2 119.743 307.173 119.724ZM358.42 272.667C358.017 272.712 357.549 272.745 357.063 272.787C336.804 274.232 316.348 271.922 296.324 268.96C291.893 268.292 288.491 265.911 288.636 260.834C288.823 258.682 289.295 256.566 290.037 254.544C294.809 240.061 299.541 225.567 304.044 210.997C305.845 205.242 307.597 199.5 309.357 193.746L309.441 193.472C309.993 191.669 310.541 189.87 311.097 188.071C312.305 184.087 313.549 180.066 314.761 176.089C315.369 174.141 315.969 172.146 316.579 170.186C316.635 170.02 316.824 169.492 317.057 168.824C317.508 167.369 317.96 165.915 318.411 164.461C318.411 164.461 318.411 164.461 318.411 164.435C324.311 169.397 330.057 174.457 335.507 179.899C344.332 188.723 352.676 198.404 359.624 208.939C361.597 211.922 363.461 214.981 365.193 218.113C372.804 231.698 377.225 246.932 378.105 262.595C378.528 271.893 364.633 272.238 358.42 272.667Z" fill="white" />
<path d="M293.279 314.254C176.885 308.787 80.1092 372.646 75.1112 379.066C70.1131 385.485 65.3043 398.401 81.0195 400L84.7649 398.908C157.916 349.265 229.592 330.868 299.525 348.717C318.495 354.226 317.436 367.545 321.487 370.084C321.487 370.084 325.084 372.344 328.987 367.778C332.889 363.211 320.653 335.829 317.709 331.455C314.765 327.08 313.255 315.31 293.279 314.254Z"  fill="white" />
</svg>
